Coordinates
version=1
nRows=17
nColumns=24
inDegrees=yes

Units are S.I. units (second, meters, Newtons, ...)
Angles are in degrees.

endheader
time	pelvis_tilt	pelvis_list	pelvis_rotation	pelvis_tx	pelvis_ty	pelvis_tz	hip_flexion_r	hip_adduction_r	hip_rotation_r	knee_angle_r	ankle_angle_r	subtalar_angle_r	mtp_angle_r	hip_flexion_l	hip_adduction_l	hip_rotation_l	knee_angle_l	ankle_angle_l	subtalar_angle_l	mtp_angle_l	lumbar_extension	lumbar_bending	lumbar_rotation
      0.63800000	     -0.86983471	      5.78669454	      4.26620619	     -0.81919598	      0.96480071	      0.30551810	     30.45519135	     -6.20551829	     -1.50121840	     -9.36841878	     13.43092685	     -7.00946698	      0.11891038	    -17.42308180	      7.91569997	      6.56224635	    -11.48328644	      9.54420752	    -12.20190850	      1.01966063	      2.61224545	     -3.19128319	     -1.50492930
      0.64216667	     -0.87777182	      5.70450645	      4.33985126	     -0.81297309	      0.96416299	      0.30595937	     30.47525270	     -6.11854548	     -1.44332564	     -9.93769994	     13.44463947	     -6.98617370	     -0.65725343	    -17.54430069	      7.75040608	      6.37682823	    -11.90959255	      9.30935267	    -12.07293853	      6.50245569	      2.69059992	     -3.10199781	     -1.53264858
      0.64633333	     -0.90456181	      5.61104249	      4.38790702	     -0.80667255	      0.96352312	      0.30641601	     30.49056426	     -6.00307102	     -1.33114890	    -10.47272350	     13.31725945	     -7.05693721	     -0.65822719	    -17.66881023	      7.59840484	      6.28540539	    -12.30309233	      9.08510585	    -12.10561163	      6.50867690	      2.80961340	     -2.99110271	     -1.57452689
      0.65050000	     -1.01077192	      5.50941131	      4.44809364	     -0.80034449	      0.96280314	      0.30690004	     30.56101118	     -5.87076763	     -1.13316288	    -10.97331647	     13.17415048	     -7.27727552	     -0.64902732	    -17.66973243	      7.43783160	      6.15193574	    -12.76788668	      8.84827839	    -12.03698458	      6.57064935	      3.03046439	     -2.87877437	     -1.68106065
      0.65466667	     -1.02273400	      5.40090746	      4.50036677	     -0.79394842	      0.96222350	      0.30735911	     30.53412355	     -5.73750015	     -1.06294660	    -11.50641320	     13.00033160	     -7.37910272	     -0.64604320	    -17.78204594	      7.26811601	      6.03974737	    -13.21257517	      8.59068683	    -12.07159683	      6.59441234	      3.13545006	     -2.75651174	     -1.71027676
      0.65883333	     -1.13534749	      5.26999851	      4.55223001	     -0.78752960	      0.96154329	      0.30788157	     30.56216425	     -5.55776669	     -0.82448325	    -11.94184389	     12.68948945	     -7.78743563	     -0.60237826	    -17.73424617	      7.07725143	      5.84415737	    -13.74841444	      8.35779425	    -11.97333689	      6.80351925	      3.37954768	     -2.60752623	     -1.80997399
      0.66300000	     -1.19356642	      5.11603029	      4.59245012	     -0.78099148	      0.96097133	      0.30837628	     30.54440542	     -5.36549239	     -0.75409658	    -12.42599781	     12.42726171	     -7.88984846	     -0.58098321	    -17.78085181	      6.86651169	      5.70407310	    -14.20837088	      7.98337075	    -11.99938812	      6.89824060	      3.56513765	     -2.42166348	     -1.82965388
      0.66716667	     -1.24167370	      4.92947534	      4.58996864	     -0.77444394	      0.96041837	      0.30899400	     30.46991378	     -5.09090963	     -0.49445713	    -12.81265004	     12.05918876	     -8.42693391	     -0.26105144	    -17.78700430	      6.61947111	      5.40112031	    -14.75694585	      7.68287386	    -11.92764658	      8.12226160	      3.74563168	     -2.19559646	     -1.86169744
      0.67133333	     -1.35457518	      4.78434768	      4.65591025	     -0.76786407	      0.95983870	      0.30944657	     30.50983854	     -4.92847009	     -0.53092397	    -13.31429913	     11.67999334	     -8.43094430	     -0.23746988	    -17.73169589	      6.42265043	      5.30662223	    -15.29287337	      7.25547078	    -12.00626482	      8.22316711	      4.00038454	     -2.03677736	     -1.87287468
      0.67550000	     -1.45801987	      4.62248875	      4.68183269	     -0.76123128	      0.95929801	      0.30994479	     30.52661072	     -4.72471094	     -0.51046289	    -13.79045429	     11.29106176	     -8.50693641	     -0.20909460	    -17.66848117	      6.21687748	      5.12757699	    -15.85358299	      6.80523072	    -12.08326002	      8.33424011	      4.27289710	     -1.82957258	     -1.89158689
      0.67966667	     -1.57835688	      4.43881056	      4.69575911	     -0.75458604	      0.95876674	      0.31049408	     30.55456570	     -4.48765975	     -0.47347628	    -14.25145735	     10.85162528	     -8.64007425	     -0.16963246	    -17.56592339	      5.99092531	      4.93475928	    -16.44831835	      6.32821777	    -12.15348471	      8.48547399	      4.54742946	     -1.62251651	     -1.89838569
      0.68383333	     -1.68680834	      4.22501583	      4.70679660	     -0.74793789	      0.95829184	      0.31110100	     30.54808771	     -4.20703308	     -0.39887124	    -14.67169528	     10.35241585	     -9.04507110	      1.28002311	    -17.42107583	      5.71550215	      4.62538537	    -17.12286521	      5.83396023	    -12.18507597	     13.42497165	      4.81027949	     -1.37536527	     -1.86652381
      0.68800000	     -1.79459962	      4.03296696	      4.68737800	     -0.74123971	      0.95785477	      0.31169332	     30.57450697	     -3.95174171	     -0.40033094	    -15.16073127	      9.91919717	     -9.08163630	      1.28371668	    -17.30594178	      5.48506397	      4.38877193	    -17.74262479	      5.23284788	    -12.27120106	     13.43977226	      5.07679476	     -1.14998455	     -1.86986179
      0.69216667	     -1.90773232	      3.82879252	      4.66404798	     -0.73453983	      0.95745772	      0.31228881	     30.60407558	     -3.68419615	     -0.41118607	    -15.64855801	      9.48214891	     -9.16872040	      1.29234005	    -17.15253746	      5.24299643	      4.13630912	    -18.41577453	      4.63598318	    -12.34935847	     13.47739583	      5.36385899	     -0.89113913	     -1.84972108
      0.69633333	     -2.02918437	      3.60705912	      4.62620801	     -0.72782751	      0.95709906	      0.31292815	     30.64540615	     -3.39039541	     -0.41315678	    -16.14349078	      9.05064814	     -9.27715714	      1.30515333	    -16.96923536	      4.98289096	      3.86010356	    -19.11344906	      4.01088311	    -12.41811426	     13.53514984	      5.65993360	     -0.62347971	     -1.81510157
      0.70050000	     -2.18314831	      3.38958277	      4.57938884	     -0.72119222	      0.95673240	      0.31364749	     30.72077573	     -3.08327261	     -0.33113044	    -16.62754156	      8.57375327	     -9.56729956	      1.34917919	    -16.69398365	      4.72079168	      3.53231847	    -19.91464079	      3.42684797	    -12.44645471	     13.73285306	      5.97591408	     -0.39029783	     -1.72324968
      0.70466667	     -2.25202281	      3.14635879	      4.50396161	     -0.71446329	      0.95652641	      0.31434666	     30.73118954	     -2.75600938	     -0.37126589	    -17.18369638	      8.27019597	     -9.61746336	      1.36683943	    -16.54116430	      4.43498659	      3.22354383	    -20.63677174	      2.67534403	    -12.50001416	     13.81684615	      6.21180380	     -0.07469748	     -1.69374511
